<svg width="20" height="20" viewBox="0 0 20 20" fill="none" xmlns="http://www.w3.org/2000/svg">
  <path d="M18.521 0H1.476C.66 0 0 .645 0 1.44v17.12C0 19.355.66 20 1.476 20h17.045c.815 0 1.479-.645 1.479-1.44V1.44C20 .645 19.336 0 18.521 0zM5.928 17.042H2.946V7.497h2.982v9.545zM4.437 6.194c-.954 0-1.727-.773-1.727-1.726 0-.954.773-1.727 1.727-1.727.953 0 1.726.773 1.726 1.727 0 .953-.773 1.726-1.726 1.726zm12.605 10.848h-2.981v-4.64c0-1.107-.02-2.532-1.544-2.532-1.544 0-1.78 1.206-1.78 2.45v4.722H7.756V7.497h2.862v1.305h.041c.398-.754 1.371-1.548 2.821-1.548 3.018 0 3.575 1.985 3.575 4.567v5.221z" fill="white"/>
</svg>